<svg version="1" xmlns="http://www.w3.org/2000/svg" width="346.667" height="346.667" viewBox="0 0 260.000000 260.000000"><path d="M0 130v130h260V0H0v130zm159.6-38.8c.3.4.3 2-.1 3.7-.6 2.8-1 3.1-4.8 3.1-5.5 0-7.7 2.2-7.7 7.7v4.3h4.5c4.5 0 4.5 0 4.5 3.5s0 3.5-4.5 3.5H147v43h-9v-43h-3.5c-3.3 0-3.5-.2-3.5-3.5s.2-3.5 3.5-3.5c3.5 0 3.5 0 3.5-4.5 0-10.5 5.4-15.9 15.2-15.2 3.2.2 6 .6 6.4.9zm-73.1 19.4c1.9.9 4.1 2.7 5 4.1l1.7 2.5 3.1-3c5.6-5.4 13.2-6.7 19.6-3.4 7.2 3.6 7.6 4.9 7.9 28.3l.3 20.9H115v-19.3c0-19.2 0-19.4-2.4-21.6-2.8-2.6-9-3.1-12.4-1-4.8 3-5.6 6.4-6 24.6l-.4 17.3H86v-17.8c0-14.8-.3-18.3-1.8-21.2-1.5-3.2-2.1-3.5-6.5-3.8-5.8-.4-8.7 1.2-11.1 6.1-1.3 2.8-1.6 6.7-1.6 20.1V160h-9v-50h4c3.8 0 4 .1 4 3.2v3.1l2.3-2.1c5.3-5 14.1-6.5 20.2-3.6zm101.8-.2c4.9 1.8 7.6 4.2 9.4 8.5 1.7 3.9.8 5.1-3.9 5.1-2 0-3.1-.8-4.2-2.9-3.4-6.4-17.3-6.7-19.7-.4-1.4 3.9.5 6.1 6.9 7.9 3.1.8 8.5 2.4 11.9 3.5 11.3 3.7 15.1 11.4 10 20.3-3.4 5.9-8.3 8.1-18.7 8.1-7.2 0-9.1-.4-12.3-2.4-3.6-2.2-7.7-8.3-7.7-11.4 0-1.4 2.9-2.7 6.2-2.7 1.1 0 2.3 1.4 3.2 3.4.8 2 2.8 4.2 4.5 5 5.7 3 15.9 1.3 17.5-2.9 2-5.4-.2-7.6-11.5-10.8-13-3.8-17.3-6.5-18.4-11.9-1.6-7 2.5-13.8 9.7-16.5 4.4-1.6 12.5-1.5 17.1.1z"/></svg>